<svg xmlns="http://www.w3.org/2000/svg" width="200" height="200" xmlns:v="https://vecta.io/nano"><path d="M91.813-.187l3.52.082L98 0l1 8c2.89.963 5.322 1.169 8.343 1.29 12.023.488 22.045 2.885 32.657 8.71l4 2v2l1.625.75c5.234 2.755 9.26 6.035 13.375 10.25l3.625 3.25 1.727 1.516c1.745 1.442 1.745 1.442 4.648 2.234v2h4v2l2.082.367 2.73.508 2.707.492C183 46 183 46 186 48c-.084 2.847-.591 4.551-2.52 6.668C178.593 59 178.593 59 175 59c2.858 6.309 6.013 11.641 10.547 16.895 1.676 2.428 2.227 4.172 2.453 7.105-1.812 2.313-1.812 2.313-4 4h-2l.438 2.5c.615 3.827 1.098 7.652 1.563 11.5l-9 3 1.438 4.063c1.315 3.976 2.31 7.731 2.563 11.938l-2 3c-2.937.188-2.937.188-6 0h-3l.035 1.828.027 2.422.035 2.391C168 132 168 132 167.492 133.789c-.91 4.088-.487 8.372-.365 12.543.03 1.89-.042 3.78-.127 5.668-2 2-2 2-4.164 2.195l-2.461-.07-2.477-.055L156 154l-1.437 4.688-.809 2.637c-.717 2.546-1.271 5.076-1.754 7.676h-2l-1 9 2.563-.437c5.089.648 7.271 3.594 10.438 7.438 3.088 4.412 6 9.544 6 15H18c-1.484-5.936.941-9.872 4-15 1.72-1.801 3.42-3.248 5.449-4.684 2.033-1.726 2.868-2.707 3.551-5.316-.943-2.485-1.91-4.574-3.187-6.875l-.963-1.816L24 161c-3-5.622-3-5.622-3-9h-2c-2.38-11.603-4.811-24.957 2.063-35.437l1.035-1.559c2.551-5.665 1.977-12.228 1.824-18.305l-.078-5.4-.166-8.412c-.523-21.221-.523-21.221 7.49-30.36l2.02-1.59 2.043-1.66C37 48 37 48 39 47c.547-2.028.547-2.028.816-4.48l.377-2.779.369-2.928.754-5.668.352-2.697c.383-2.827.836-5.638 1.332-8.448h2l.25-2.125C46.962 11.312 52.461 4.806 58 1c2.754.277 2.754.277 5 1l.063 5.75.035 3.234C63.015 13.534 62.746 15.579 62 18c4.06-2.038 4.06-2.038 6-6 3.523-3.636 7.578-6.556 12-9l2.223-1.57c3.423-1.762 5.765-1.733 9.59-1.617z" fill="#2a2a2b"/><path d="M25 78h2l-1 4h2v2h-2l1 3 .133 5 .004 2.938L27.125 98l.012 3.063-.004 2.938-.003 2.688C27 109 27 109 26 112h2c1.193 3.877 2 6.916 2 11l2-1c.629-2.332 1.155-4.693 1.625-7.062l.789-3.91L35 108c2.315 3.472 3.41 6.992 4.625 10.938l.695 2.17C41.405 124.591 42 127.319 42 131h2l.664 1.766C47.36 139.735 50.578 146.361 54 153h2c1.645-2.463 1.645-2.463 3-5l-1.98-2.895c-2.603-4.562-2.512-8.651-2.332-13.793l.029-2.549c.069-3.761.264-7.126 1.283-10.764h2c2.741 2.909 3.354 4.999 3.5 8.938.308 4.098.769 6.826 3.5 10.063 3.067 1.895 5.48 2.296 9.063 2.313l2.598.051c2.785-.432 3.678-1.124 5.34-3.363v-2l-2 3c-4.145 1.382-8.059 1.647-12.25.25-2.318-1.656-3.344-2.712-4.75-5.25-.372-3.257-.282-6.477-.187-9.75l.041-2.691L63 113l3-1 6 8-5-1-.125 5.313-.07 2.988c-.012 2.923-.012 2.923 2.195 5.699 3.5.417 3.5.417 7 0 2.398-2.398 2.343-3.333 2.625-6.625l.227-2.477L79 122l-5-1v-11l2.75 2.375 1.938 1.648 5.063 4.391C90.104 123.891 96.462 128.26 104 132l-.459-1.988-2.041-8.887-.723-3.129-.684-2.988-.635-2.761C99 110 99 110 99 108c3.861 1.678 6.979 4.216 10.25 6.813 4.756 3.73 9.581 7.045 14.75 10.188v1l-8 1c-1.244 5.969-1.244 5.969.438 11.563L118 140c3.432-.264 3.432-.264 7-1 2.108-3.162 2.338-4.507 2.625-8.187l.227-2.73L128 126h-3l-2-5.312-1.125-2.988C121 115 121 115 121 112c4.176.684 7.881 2.014 11.813 3.563l3.52 1.379L139 118c-.292 6.805-.646 13.313-2.562 19.875-2.045 7.327-1.696 14.591-1.437 22.125 2.597-2.318 3.953-4.616 5.438-7.75 2.03-4.196 4.204-8.231 6.563-12.25 4.487 1.154 6.657 3.32 9.113 7.086 1.534 3.312.88 5.466-.113 8.914a178.74 178.74 0 0 1-3.16 7.766c-1.016 2.305-1.016 2.305-.84 5.234h-2l-1 9 2.563-.437c5.089.648 7.271 3.594 10.438 7.438 3.088 4.412 6 9.544 6 15H18c-1.484-5.936.941-9.872 4-15 1.72-1.801 3.42-3.248 5.449-4.684 2.033-1.726 2.868-2.707 3.551-5.316-.943-2.485-1.91-4.574-3.187-6.875l-.963-1.816L24 161c-3-5.622-3-5.622-3-9h-2c-2.38-11.603-4.811-24.957 2.063-35.437l1.035-1.559c3.122-6.933 1.98-15.484 1.902-22.879l-.062-7.367-.035-3.277C24 79 24 79 25 78z" fill="#74111e"/><path d="M91.813-.187l3.52.082L98 0l1 8c2.89.963 5.322 1.169 8.343 1.29 12.023.488 22.045 2.885 32.657 8.71l4 2v2l1.625.75c5.234 2.755 9.26 6.035 13.375 10.25l3.625 3.25 1.727 1.516c1.745 1.442 1.745 1.442 4.648 2.234v2h4v2l2.082.367 2.73.508 2.707.492C183 46 183 46 186 48c-.084 2.847-.591 4.551-2.52 6.668C178.593 59 178.593 59 175 59c2.858 6.309 6.013 11.641 10.547 16.895 1.676 2.428 2.227 4.172 2.453 7.105-1.812 2.313-1.812 2.313-4 4h-2l.438 2.5c.615 3.827 1.098 7.652 1.563 11.5l-9 3 1.438 4.063c1.315 3.976 2.31 7.731 2.563 11.938l-2 3c-3.125.188-3.125.188-6 0-.934-3.01-1.044-3.867 0-7-.783-3.523-1.608-6.389-3.562-9.437-1.49-2.656-1.548-3.635-1.625-6.562-.081-2.08-.081-2.08-.812-4-1.99-1.685-3.959-2.823-6.285-3.992L157 91v-2l-4-1v-2h-6l-1-5-2.562-.687c-3.404-1.3-5.768-2.808-8.629-4.996-3.886-2.828-8.055-4.976-12.371-7.066-4.295-2.116-8.407-4.391-12.5-6.875-4.685-2.785-9.3-4.829-14.465-6.551C93 54 93 54 90.703 52.996c-3.607-1.329-7.238-1.959-11.016-2.621l-2.244-.406L72 49v-2l-9.687.375-2.764.094c-6.517.228-6.517.228-12.549 2.531l-1 2-8-3v3l3 1-2.336 1.102c-6.302 2.931-6.302 2.931-10.352 8.273L28 65h-2l1 4h-2v9h-1c-.621-8.801-.344-15.718 5-23 3-3.137 6.097-6.048 10-8 .547-2.028.547-2.028.816-4.48l.377-2.779.369-2.928.754-5.668.352-2.697c.383-2.827.836-5.638 1.332-8.448h2l.25-2.125C46.962 11.312 52.461 4.806 58 1c2.754.277 2.754.277 5 1l.063 5.75.035 3.234C63.015 13.534 62.746 15.579 62 18c4.06-2.038 4.06-2.038 6-6 3.523-3.636 7.578-6.556 12-9l2.223-1.57c3.423-1.762 5.765-1.733 9.59-1.617z" fill="#373838"/><path d="M99 108c3.861 1.678 6.979 4.216 10.25 6.813 4.756 3.73 9.581 7.045 14.75 10.188v1l-8 1c-1.244 5.969-1.244 5.969.438 11.563L118 140c3.432-.264 3.432-.264 7-1 2.108-3.162 2.338-4.507 2.625-8.187l.227-2.73L128 126h-3l-2-5.312-1.125-2.988C121 115 121 115 121 112c4.176.684 7.881 2.014 11.813 3.563l3.52 1.379L139 118c-.546 12.718-1.222 27.998-11.187 37.25-3.885 3.091-8.206 4.974-12.812 6.75l1.102 1.73c4.242 6.842 7.621 13.925 10.898 21.27l1 2c.282 3.737.221 6.422-1.125 9.938C125 199 125 199 122.063 199.625c-3.981-.812-4.802-2.351-7.062-5.625-7.236-4.824-16.641-4.186-25.031-3.973C87 190 87 190 84 189c-9.354-.751-17.203 1.068-26 4-1.579-3.157-1.497-6.566-1-10 2.079-4.987 5.085-8.951 8.438-13.125l1.447-1.84c2.545-3.204 5.143-6.21 8.115-9.035l-2.125-.996C65.321 154.217 57.798 149.393 55 141a69.07 69.07 0 0 1-.133-4.309l-.004-2.514.012-2.615-.012-2.604.004-2.518.003-2.291c.13-2.165.535-4.069 1.129-6.151h2c2.741 2.909 3.354 4.999 3.5 8.938.308 4.098.769 6.826 3.5 10.063 3.067 1.895 5.48 2.296 9.063 2.313l2.598.051c2.785-.432 3.678-1.124 5.34-3.363v-2l-2 3c-4.145 1.382-8.059 1.647-12.25.25-2.318-1.656-3.344-2.712-4.75-5.25-.372-3.257-.282-6.477-.187-9.75l.041-2.691L63 113l3-1 6 8-5-1-.125 5.313-.07 2.988c-.012 2.923-.012 2.923 2.195 5.699 3.5.417 3.5.417 7 0 2.398-2.398 2.343-3.333 2.625-6.625l.227-2.477L79 122l-5-1v-11l2.75 2.375 1.938 1.648 5.063 4.391C90.104 123.891 96.462 128.26 104 132l-.459-1.988-2.041-8.887-.723-3.129-.684-2.988-.635-2.761C99 110 99 110 99 108z" fill="#b39f8b"/><path d="M60.754 1.277L63 2l.188 5.813.105 3.27C63 14 63 14 60 17l-9-4 2 4-2 3h-2c-.819 3.574-1.118 6.857-1.098 10.52l.01 3.096.025 3.197.014 3.256L48 48c2.88-2.766 5.437-5.27 7.313-8.812L57 36l1 2c3.17 1.441 5.088 2.251 8.5 1.313 1.684-.884 3.351-1.802 5-2.75C83.639 31.143 95.982 31.64 109 32v3l7.188 1.938 2.041.553c3.573.959 7.133 1.839 10.771 2.51v2l3-1v2l2.313.313c2.858.731 3.845 1.457 5.688 3.688-6.005-.649-11.401-2.858-17-5l1.793 1.172c3.463 2.282 6.848 4.539 10.082 7.141 2.109 1.872 2.109 1.872 5.125 2.688l1 5 1.813.188c3.078 1.143 3.55 3 5.188 5.813a197.1 197.1 0 0 0 4.063 5.25l2.098 2.641c1.668 2.182 1.668 2.182 3.84 3.109v2h2c1.621 1.68 1.621 1.68 3.438 3.875 2.147 2.587 3.73 4.237 6.563 6.125v-5l3-1c-.647-4.129-.647-4.129-1.625-8.187C171 71 171 71 172 68h-2c-1.75-1.625-1.75-1.625-3-4 .813-3.25.813-3.25 2-6h3l1-2 4 1v2h-2c2.858 6.309 6.013 11.641 10.547 16.895 1.676 2.428 2.227 4.172 2.453 7.105-1.812 2.313-1.812 2.313-4 4h-2l.438 2.5c.615 3.827 1.098 7.652 1.563 11.5l-9 3 1.438 4.063c1.315 3.976 2.31 7.731 2.563 11.938l-2 3c-3.125.188-3.125.188-6 0-.934-3.01-1.044-3.867 0-7-.783-3.523-1.608-6.389-3.562-9.437-1.49-2.656-1.548-3.635-1.625-6.562-.081-2.08-.081-2.08-.812-4-1.99-1.685-3.959-2.823-6.285-3.992L157 91v-2l-4-1v-2h-6l-1-5-2.562-.687c-3.404-1.3-5.768-2.808-8.629-4.996-3.886-2.828-8.055-4.976-12.371-7.066-4.295-2.116-8.407-4.391-12.5-6.875-4.685-2.785-9.3-4.829-14.465-6.551C93 54 93 54 90.703 52.996c-3.607-1.329-7.238-1.959-11.016-2.621l-2.244-.406L72 49v-2l-9.687.375-2.764.094c-6.517.228-6.517.228-12.549 2.531l-1 2-8-3v3l3 1-2.336 1.102c-6.302 2.931-6.302 2.931-10.352 8.273L28 65h-2l1 4h-2v9h-1c-.621-8.801-.344-15.718 5-23 3-3.137 6.097-6.048 10-8 .547-2.028.547-2.028.816-4.48l.377-2.779.369-2.928.754-5.668.352-2.697c.383-2.827.836-5.638 1.332-8.448h2l.25-2.125C46.831 11.814 53.885.586 60.754 1.277z" fill="#4c4d4c"/><path d="M147 140c4.487 1.154 6.657 3.32 9.113 7.086 1.534 3.312.88 5.466-.113 8.914a178.74 178.74 0 0 1-3.16 7.766c-1.016 2.305-1.016 2.305-.84 5.234h-2l-1 9 2.563-.437c5.089.648 7.271 3.594 10.438 7.438 3.088 4.412 6 9.544 6 15H68v-3l-8 1-2-5c7.677-5.448 16.892-5.588 26-5l3 1c2.167.02 4.334-.007 6.5-.062 9.38-.029 17.243-.037 24.355 6.625C119 197 119 197 119 199c4.196-.218 4.196-.218 7.375-2.625 2.519-9.572-2.537-16.28-7.109-24.488l-1.641-2.949-1.523-2.66C115 164 115 164 115 161l2.449-1.102c6.222-2.927 10.658-5.189 14.551-10.898l2-2c1 1 1 1 1.098 3.723l-.035 3.34-.027 3.348L135 160c2.597-2.318 3.953-4.616 5.438-7.75 2.03-4.196 4.204-8.231 6.563-12.25z" fill="#672918"/><path d="M99 108c3.861 1.678 6.979 4.216 10.25 6.813 4.756 3.73 9.581 7.045 14.75 10.188v1l-8 1c-1.244 5.969-1.244 5.969.438 11.563L118 140c3.432-.264 3.432-.264 7-1 2.108-3.162 2.338-4.507 2.625-8.187l.227-2.73L128 126h-3l-2-5.312-1.125-2.988C121 115 121 115 121 112c4.176.684 7.881 2.014 11.813 3.563l3.52 1.379L139 118c-.546 12.718-1.222 27.998-11.187 37.25-3.885 3.091-8.206 4.974-12.812 6.75l1.102 1.73c4.242 6.842 7.621 13.925 10.898 21.27l1 2c.282 3.737.221 6.422-1.125 9.938C125 199 125 199 122.063 199.625c-3.981-.812-4.802-2.351-7.062-5.625-2.89-1.927-4.15-2.332-7.437-2.875-2.889-.62-4.551-1.118-7.062-2.75-2.169-3.434-2.231-6.339-2.5-10.375h-2v-15l2-1v-2h-4v-9h2c3.41-6.138 3.12-12.155 3-19h5l-.459-1.988-2.041-8.887-.723-3.129-.684-2.988-.635-2.761C99 110 99 110 99 108z" fill="#ecd9c3"/><path d="M108 23c8.372-.439 16.016-.108 24.188 1.813l2.176.501c3.865.975 6.601 2.125 9.637 4.687a97.08 97.08 0 0 0 4.25 2.188l2.141 1.043L152 34v2h3l1-5 1.574 1.207c3.082 2.342 6.078 4.59 9.426 6.543l2 1.25v2h4v2l2.082.367 2.73.508 2.707.492C183 46 183 46 186 48c-.086 2.913-.579 4.568-2.625 6.668A127.43 127.43 0 0 1 178 59l-5-3-1 3-2-1c-1.827 4.121-1.827 4.121-1.125 8.375L170 68h2c1.423 4.269 1 8.534 1 13l-2 1c-.656 2.527-.656 2.527-1 5-4.136-1.591-7.232-4.605-10-8v-2h-2v-2l-1.703-.66c-3.055-1.782-4.821-4.039-7.047-6.777l-2.422-2.934C145 62 145 62 145 59l-4-1-1-5-1.789-.375c-3.493-.987-6.334-3.084-9.336-5.062l-1.918-1.236c-2.519-1.639-4.826-3.195-6.957-5.326 6.451 1.353 12.711 3.031 19 5-9.676-5.102-19.327-7.674-30-10v-3c-13.784-.623-25.801.469-39.043 4.427-1.975.578-3.958 1.086-5.957 1.573 3.172-3.725 5.871-4.877 10.563-6.125l3.441-.945C99.286 26.791 119.406 27.628 140 35l3 1c-2.972-1.899-5.515-3.355-9-4v-2l-3.625-.437c-2.375-.287-4.709-.625-7.062-1.062-4.224-.638-8.424-.855-12.687-1.062l-2.52-.131L102 27v-1h11v-2h-5v-1z" fill="#343537"/><path d="M57 47l-1 3-3 1 4 2-1.25 2.438c-.958 4.551.238 6.585 2.305 10.609C59 68 59 68 59 70h-2v-2c-2.784 1.706-3.854 2.476-4.75 5.688L52 76l-2-2v12l-1-2h-2l-1 11c-2.721-2.721-2.607-4.848-3.125-8.625l-.508-3.602L42 80c-.249 14.817.152 29.293 2 44l.29 2.336L45 132h2l2.938 8.25.842 2.355.811 2.285.746 2.095c.656 1.989 1.183 3.978 1.664 6.015-6.248-5.647-8.575-13.969-10-22h-2l-6-20-2 7-2 5h-2c-1.193-3.877-2-6.916-2-11h-2V84h2v-2h-2l1-4h-2v-9h2l-1-4h2l-1-3c.893-3.072 1.797-3.884 4.602-5.484l3.023-1.266 3.039-1.297L40 53l-2-1v-3l3.375.5c4.303.795 4.303.795 7.938-1C52.207 46.884 53.75 46.721 57 47z" fill="#414246"/><path d="M25 78h2l-1 4h2v2h-2l1 3 .133 5 .004 2.938L27.125 98l.012 3.063-.004 2.938-.003 2.688C27 109 27 109 26 112h2c1.193 3.877 2 6.916 2 11l2-1c.629-2.332 1.155-4.693 1.625-7.062l.789-3.91L35 108c2.281 3.422 3.407 6.868 4.625 10.75l.695 2.094c1.552 4.913 3.106 10.303.68 15.156h-2v5l-2 1-4-4 .324 2.484.363 3.266.387 3.234c-.085 3.469-.784 4.505-3.074 7.016l-1 2h-3l2 2-.125 2.188c.146 3.279 1.34 5.096 3.039 7.844C33.82 171.487 34.856 175.239 36 179l1 3-1.496 1.285c-4.47 4.092-6.15 6.459-6.504 12.715l-2 4h-9c-1.484-5.936.941-9.872 4-15 1.72-1.801 3.42-3.248 5.449-4.684 2.033-1.726 2.868-2.707 3.551-5.316-.943-2.485-1.91-4.574-3.187-6.875l-.963-1.816L24 161c-3-5.622-3-5.622-3-9h-2c-2.38-11.603-4.811-24.957 2.063-35.437l1.035-1.559c3.122-6.933 1.98-15.484 1.902-22.879l-.062-7.367-.035-3.277C24 79 24 79 25 78z" fill="#613523"/><path d="M57 47h15v2l1.836.148c8.478.756 16.549 1.554 24.082 5.754 2.236 1.219 2.236 1.219 5.313 2.441 4.153 1.753 7.999 3.961 11.895 6.219 4.228 2.446 8.308 4.676 12.875 6.438a74.81 74.81 0 0 1 3.688 2.25c4.057 2.614 8.215 5.026 12.406 7.418L146 81v2l2 1-1 2h6v2l1.875.313C157 89 157 89 159 92c1.948 1.002 1.948 1.002 4.125 1.688l2.195.762L167 95l-2 1c2.353 7.303 2.353 7.303 6 14 1.047 4.713 1.231 7.67-1 12-2.068-2.068-2.972-3.284-4-6l.063-3.375c-.07-4.055-.946-6.205-3.062-9.625l-2-1-1 2h-4l-.687-1.812c-1.167-2.333-1.167-2.333-3.5-3.5-3.877-2.326-6.699-5.44-9.812-8.687l-2.125-2.125c-1.469-1.469-2.899-2.978-4.312-4.5-2.584-2.395-4.312-3.186-7.562-4.375l-2.5-1.875c-4.014-2.797-8.657-3.837-13.309-5.176a79.58 79.58 0 0 1-7.629-2.699C101.095 68.033 98.636 67.727 95 68v-3l-7-1v-2l-2.312-.25c-4.195-.853-7.985-2.259-11.984-3.762-3.202-1.171-6.41-2.11-9.703-2.988v-2l-13-1 2-2h3l1-3z" fill="#171718"/><path d="M42 76h1l2 17 2-9h2l.629 1.801c2.245 6.04 5.095 11.213 8.688 16.559 4.26 6.682 5.133 11.46 5.246 19.266l.129 5.602.037 2.487c.298 2.513.94 4.144 2.271 6.287 4.296 1.91 9.654 1.449 14 0 1.667-1.5 1.667-1.5 3-3-.566 3.283-1.37 4.93-4 7-4.483.775-8.727.515-12.937-1.187-4.065-3.573-5.165-6.574-5.625-11.875l-.129-2.535c-.325-2.527-1.046-4.207-2.309-6.402h-2l-.25 11-.102 3.121c-.087 6.803.795 11.053 4.352 16.879l-2 1c-1.134 2.017-1.134 2.017-2 4h-2l-.77-2.414c-2.161-6.674-2.161-6.674-4.98-13.086C47 136 47 136 47 132h-2c-3.286-13.6-4.072-26.661-4.125-40.625l-.014-3.201.007-3.026.003-2.713c.121-2.284.488-4.246 1.129-6.435z" fill="#1a181a"/><path d="M117 160l-2 3 1.102 1.512c4.525 6.462 7.726 13.285 10.898 20.488l1 2c.282 3.737.221 6.422-1.125 9.938C125 199 125 199 122.063 199.625c-3.981-.812-4.802-2.351-7.062-5.625-2.89-1.927-4.15-2.332-7.437-2.875-2.889-.62-4.551-1.118-7.062-2.75-2.169-3.434-2.231-6.339-2.5-10.375h-2v-15l2-1v-2l2.047.035 2.703.027 2.672.035c10.394-.394 10.394-.394 11.578-.098z" fill="#c2b7a4"/><path d="M143 116c6.75 2.75 6.75 2.75 9 5l-1 2 1.688-.812C155 122 155 122 157.531 124.027c2.911 3.505 3.508 5.887 4.281 10.348l.707 3.836c.462 3.645.571 7.12.48 10.789h2v3h-2v2h-6l-.75-3.187c-1.051-3.642-2.491-6.135-5.25-8.812h-4l-1.172 2.16-3.238 5.93-2.773 5.164c-2.488 4.637-2.488 4.637-5.816 5.746-.289-9.049-.37-17.294 2.199-26.062 1.423-5.221 2.067-10.583 2.801-15.937h3l1-3z" fill="#1d1b1b"/><path d="M91.813-.187l3.52.082L98 0l1 8 11 2c-3.381 2.254-4.606 2.245-8.562 2.188l-2.941-.02C96 12 96 12 94 11l-1 2v-3l-.437 2.313C92 15 92 15 91 18h-2v2l-5.687 3.938-3.199 2.09-5.895 3.617c-2.265 1.273-2.265 1.273-4.031 3.105-3.483 1.99-6.312.96-10.187.25l2-7h-2l1-3 1-4h3c1.206-2.332 2.165-4.496 3-7 3.523-3.636 7.578-6.556 12-9l2.223-1.57c3.423-1.762 5.765-1.733 9.59-1.617z" fill="#474749"/><path d="M49 145l3.5 5.688L54 153h2l2-4c3.384.629 5.626 1.916 8.438 3.875 3.134 2.151 6.273 4.215 9.563 6.125l-2.18 2.098c-2.917 2.92-5.441 6.066-7.945 9.34l-1.301 1.658C59.812 178.287 57.057 183.205 58 191c.898 3.368.898 3.368 2 6h8v3H49l1-6h2v-4h2l-.312-3.875-.176-2.18c-.386-2.341-.386-2.341-3.512-3.945-.919-4.672-1.305-8.361 0-13h-1c-2.409-5.81-1.965-10.104 0-16 .039-2 .044-4 0-6z" fill="#560a14"/><path d="M99 108c3.861 1.678 6.979 4.216 10.25 6.813 4.756 3.73 9.581 7.045 14.75 10.188v1l-8 1c-1.244 5.969-1.244 5.969.438 11.563L118 140c3.432-.264 3.432-.264 7-1 2.108-3.162 2.338-4.507 2.625-8.187l.227-2.73L128 126h-3l-2-5.312-1.125-2.988C121 115 121 115 121 112c6.331 1.037 12.055 3.658 18 6l-1 14-1-4h-3l.438 2.875c.046 5.66-3.92 10.004-7.437 14.125-4.02 2.68-7.276 2.805-12 2-4.148-3.001-5.96-6.007-7-11 .216-4.42 2.116-6.744 5-10-4.474 1.193-6.419 2.186-9 6l-2.5-10.875-.723-3.129-.684-2.988-.635-2.761C99 110 99 110 99 108z" fill="#b4a99e"/><path d="M87 189l6.5-.062c9.38-.029 17.243-.037 24.355 6.625C119 197 119 197 119 199h5v1H68v-3l-8 1-2-5c7.822-5.551 19.948-7.017 29-4z" fill="#49525c"/><path d="M45 59c-.413 4.953-1.477 8.411-3.965 12.715-2.87 6.336-3.336 12.448-3.223 19.285l.02 2.47c.098 7.863.562 15.691 1.168 23.53-2.139-2.139-2.427-3.133-3-6l-.875 3.188c-.897 3.041-1.889 5.9-3.125 8.813h-2c-1.193-3.877-2-6.916-2-11h-2V85l3 1 .25-3.375C30.309 74.615 35.294 59 45 59z" fill="#18191c"/><path d="M108 23c8.372-.439 16.016-.108 24.188 1.813l2.176.501c3.865.975 6.601 2.125 9.637 4.687a97.08 97.08 0 0 0 4.25 2.188l2.141 1.043L152 34v2l2 1-3 1 4 4c-12.434-1.633-12.434-1.633-17.625-3.562C132.44 36.643 127.257 35.811 122 36l-2 2c-4.454-.287-8.151-.594-12-3l1-2c-13.784-.623-25.801.469-39.043 4.427-1.975.578-3.958 1.086-5.957 1.573 3.172-3.725 5.871-4.877 10.563-6.125l3.441-.945C99.286 26.791 119.406 27.628 140 35l3 1c-2.972-1.899-5.515-3.355-9-4v-2l-3.625-.437c-2.375-.287-4.709-.625-7.062-1.062-4.224-.638-8.424-.855-12.687-1.062l-2.52-.131L102 27v-1h11v-2h-5v-1z" fill="#383b3b"/><path d="M89 162l9 2-1 2-.562 6.125-.254 3.32L96 178h2l.25 3.875c.209 2.178.209 2.178.75 4.125 1.921 1.59 1.921 1.59 4 2v2l-7.812.063-2.236.025c-3.25.015-5.845-.053-8.951-1.088-9.354-.751-17.203 1.068-26 4-1.607-3.215-1.057-6.436-1-10l1 3c2.437-.27 2.437-.27 5-1l2-3c3.875.875 3.875.875 5 2 3.159.053 5.105.071 8-1 3.778-3.947 5.372-8.883 7-14 .969-1.356 1.964-2.694 3-4l1-3z" fill="#978d77"/><path d="M147 140c1.282 2.977.936 4.199-.074 7.355l-1.613 3.832-.841 2.021-5.659 12.983L136 173h-2l-.062 3.188c-1.008 4.099-1.22 4.398-4.496 6.551l-1.943 1.302L126 185l-1.609-3.254-2.141-4.309-1.055-2.135c-2.254-4.528-4.646-8.934-7.195-13.303l2.668-1.32c8.779-4.478 8.779-4.478 15.332-11.68l2-2c1 1 1 1 1.098 3.723l-.035 3.34-.027 3.348L135 160c2.597-2.318 3.953-4.616 5.438-7.75 2.03-4.196 4.204-8.231 6.563-12.25z" fill="#ae2e41"/><path d="M52 79c3.068 2.701 5.006 6.056 7.125 9.5 3.64 5.822 7.597 11.022 12.125 16.195 2.874 3.785 2.874 6.9 2.813 11.555l-.027 2.703L74 121l5 1 .188 4.313.105 2.426C79 131 79 131 77.707 132.766c-2.867 2.073-5.308 1.659-8.707 1.234-1.937-1.5-1.937-1.5-3-4-.412-3.861-.238-7.287 1-11h4l-2.25-2c-2.67-2.662-4.076-5.43-5.648-8.824-1.214-2.397-2.636-4.529-4.164-6.738C53.963 94.063 52.461 87.786 52 79z" fill="#0e0e0f"/><path d="M145 177c4.389-.062 8.405-.092 12.117 2.449 5.18 5.125 8.249 10.777 10.883 17.551v3h-24l-1-9-.812-3.312L142 185c1.292-1.373 2.624-2.71 4-4-.32-2.103-.32-2.103-1-4z" fill="#921e2b"/><path d="M74 110l2.875 2.5c4.61 3.956 9.365 7.727 14.125 11.5-2 2-2 2-5 3l-.367 2.52-.508 3.293-.492 3.27C84 139 84 139 82 142h-3l-1 2-1-1c-3.005-.245-6.008-.384-9.02-.523-3.276-.524-4.636-1.169-6.98-3.477-2.311-3.317-2.094-5.814-1.625-9.75l.336-2.984L60 124h1l.297 2.047c1.064 6.932 1.064 6.932 5.703 11.953 2.454 1.227 4.2 1.202 6.938 1.25l2.652.078c2.466-.133 2.466-.133 4.227-1.719 1.381-1.545 1.381-1.545 1.184-3.609l-2 3c-4.145 1.382-8.059 1.647-12.25.25-2.318-1.656-3.344-2.712-4.75-5.25-.372-3.257-.282-6.477-.187-9.75l.041-2.691L63 113l3-1 6 8-5-1-.125 5.313-.07 2.988c-.012 2.923-.012 2.923 2.195 5.699 3.5.417 3.5.417 7 0 2.398-2.398 2.343-3.333 2.625-6.625l.227-2.477L79 122l-5-1v-11z" fill="#a59e97"/><path d="M125 69c3.044 1.47 5.924 3.119 8.813 4.875A482.65 482.65 0 0 0 146 81v2l2 1-1 2h6v2l1.875.313C157 89 157 89 159 92c1.948 1.002 1.948 1.002 4.125 1.688l2.195.762L167 95l-2 1c2.353 7.303 2.353 7.303 6 14 1.047 4.713 1.231 7.67-1 12-2.068-2.068-2.972-3.284-4-6l.063-3.375c-.07-4.055-.946-6.205-3.062-9.625l-2-1-1 2h-4l-.687-1.812c-1.167-2.333-1.167-2.333-3.5-3.5-3.877-2.326-6.699-5.441-9.812-8.687l-2.437-2.437L138 86l2-1 7 5-1-5-2-.125c-4.327-1.262-7.718-3.805-11-6.875v-2h-3v-2h-3l-2-5z" fill="#1b1b1d"/><path d="M32 137l2 1 1.25 5.313a48.83 48.83 0 0 0 4.813 12.75C43.92 163.367 45.447 170.73 45 179H35v-3l-2-1 1-2-2-1 1-2-2-1c-2.316-3.919-3.122-6.504-3-11l-2-3 1.938-.375L30 154l1-2h2c.269-4.651.269-4.651-1-9-.04-2-.043-4 0-6z" fill="#481910"/><path d="M50 12l7.688 3.188L60 16l2-1v3l3 1h-3l1 4-2 1-.375 2.688C59.883 30.62 58.211 32.684 56 36c-.729 2.27-1.353 4.531-1.898 6.852C52.486 46.003 49.984 47.222 47 49l-.125-11.687-.051-3.342-.02-3.232-.032-2.968c.241-2.942.996-5.103 2.227-7.771h2c0-3.113-.174-5.108-1-8z" fill="#242427"/><path d="M105 165h4l2 14h3l-.656-1.793c-2.766-7.849-2.766-7.849-2.344-12.207l3 1v2h2.25c3.2 1.164 3.517 1.779 5.063 4.688 1.591 3.546 2.079 6.395 1.688 10.313l-8-1v7l-7 1v-2l-1.937-.437C104 187 104 187 103 186c-.294-3.722-.148-4.778 2-8l-1-2a85.3 85.3 0 0 1-.125-5.062l-.008-2.723C104 166 104 166 105 165z" fill="#d7c8b6"/><path d="M121 112c6.331 1.037 12.055 3.658 18 6l-1 14-1-4h-3l.438 2.875c.046 5.66-3.92 10.004-7.437 14.125-4.02 2.68-7.276 2.805-12 2-4.148-3.001-5.939-6.012-7-11 .375-2.375.375-2.375 1-4h1l.332 1.898.48 2.477.457 2.461c.606 2.522.606 2.522 3.73 4.164 3.393.538 6.605.524 10 0 4.521-3.503 5.108-8.612 6-14h-2v5h-1v-8h-3l-2-5.312-1.125-2.988C121 115 121 115 121 112z" fill="#a7a092"/><path d="M89 162c-.628 4.644-.628 4.644-2.437 6.375-1.854 1.667-1.854 1.667-2.437 4.875-1.29 4.301-2.719 7.735-6.125 10.75-2.907 1.043-4.828 1.052-8 1l-2-2h-3l-2 3c-2.625.188-2.625.188-5 0l1-8 7-2c1.376 1.29 2.708 2.627 4 4v2l7-2-3-5-1 2h-3c.364-6.308.364-6.308 3.125-9.312 3.234-1.898 6.251-2.765 9.875-3.687 4.111-2 4.111-2 6-2z" fill="#dfd0bb"/><path d="M60.754 1.277L63 2l.188 5.813.105 3.27C63 14 63 14 60 17l-9-4 2 4-2 3h-2l-.402 2.266-.535 2.984-.527 2.953L46 35h-2v8h-3c-.125-7.731-.044-15.493 2-23h2l.25-2.125C46.831 11.814 53.885.586 60.754 1.277z" fill="#48474c"/><path d="M25 78h2l-1 4h2v2h-2l1 3 .133 5 .004 2.938L27.125 98l.012 3.063-.004 2.938-.003 2.688C27 109 27 109 26 112h2l1 10-2-2c-1.892 2.386-3.024 4.072-4 7l1 3-1.437 8.188-.447 2.271L21 146l-3-1c-.95-4.021-1.165-7.81-1.187-11.937l-.043-3.59c.376-5.662 2.249-9.832 5.328-14.469 3.122-6.933 1.98-15.484 1.902-22.879l-.062-7.367-.035-3.277C24 79 24 79 25 78z" fill="#505153"/><path d="M43 66c1.123 3.368.828 4.577.078 7.973-1.147 5.877-1.384 11.49-1.328 17.465l.014 3.127C41.878 104.45 42.768 114.198 44 124l.29 2.336L45 132h2l2.938 8.25.842 2.355.811 2.285.746 2.095c.656 1.989 1.183 3.978 1.664 6.015-6.248-5.647-8.575-13.969-10-22h-2c-3.371-10.034-4.775-19.421-5-30l-.078-2.4C36.543 86.539 37.031 76.801 43 66z" fill="#323035"/><path d="M25 161c3.659.55 3.659.55 5.16 2.531 2.318 5.057 4.194 10.155 5.84 15.469l1 3-1.496 1.285c-4.47 4.092-6.15 6.459-6.504 12.715l-2 4h-9c-1.484-5.936.941-9.872 4-15 1.72-1.801 3.42-3.248 5.449-4.684 2.021-1.716 2.849-2.732 3.551-5.316-1.078-3.309-1.078-3.309-2.875-6.687C25 162.013 25 162.013 25 161z" fill="#ab3851"/><path d="M147 181l-2.051 1.621c-2.271 2.242-2.271 2.242-1.867 5.289l.73 3.152c1.272 5.685 1.272 5.685.188 8.938h-20l5-10 2 2 .375-1.828c1.629-6.311 1.629-6.311 4.43-8.73 4.211-2.296 6.875-3.141 11.195-.441z" fill="#611610"/><path d="M57 47c-1 3-1 3-4.062 4.688L50 53h5c-4.153 2.346-8.486 3.015-13.125 3.926C38.231 58.287 37.082 59.741 35 63c-1.46 3.155-1.46 3.155-2.625 6.5l-1.227 3.344-2.172 6C28 81 28 81 26 82l1-4h-2v-9h2l-1-4h2l-1-3c.893-3.072 1.797-3.884 4.602-5.484l3.023-1.266 3.039-1.297L40 53l-2-1v-3l3.375.5c4.303.795 4.303.795 7.938-1C52.207 46.884 53.75 46.721 57 47z" fill="#2b2c33"/><path d="M35 83h1l1 25h-2l-.148 2.012c-.743 8.77-.743 8.77-2.852 12.988h-2c-1.193-3.877-2-6.916-2-11h-2l1-18h3c3.266-2.402 3.943-3.714 4.75-7.75L35 83z" fill="#141417"/><path d="M123 179c3.419 3.419 4.87 6.761 5.375 11.563-.407 3.734-.843 5.653-3.375 8.438-2.937.625-2.937.625-6 0-2.125-2.25-2.125-2.25-4-5l-4-4 4-1-.562-3.437L114 182l1-1a176.79 176.79 0 0 1 7 1l1-3z" fill="#dacab8"/><path d="M142 164c3 2 3 2 3.813 3.75.257 3.084-.769 5.365-1.812 8.25v3l-8.125 3.75c-2.14 1.145-2.14 1.145-2.703 3.852l-.422 3.023-.453 3.039L132 195l-2-3-2 1c-.652-3.023-1.14-5.902-1-9 2.313-2.125 2.313-2.125 5-4 1.358-3.625 1.358-3.625 2-7h2l.188-2.25c1.054-3.569 2.812-4.672 5.813-6.75z" fill="#622511"/><path d="M133 147l2 1-1 13h-1v-8h-2l-.312 2.75C130 159 130 159 128.531 160.813c-1.952 2.789-2.245 5.084-2.719 8.438l-.48 3.266L125 175h-4l-3-5.312-1.687-2.988C115 164 115 164 115 161l2.449-1.102c6.989-3.288 12.01-5.817 15.551-12.898z" fill="#9c2536"/><path d="M134 128h3c.858 8.448-1.233 15.432-5 23l-2 1v-2h-2v2c-3.075.847-5.812 1.305-9 1-3.1-1.944-5.537-4.308-8-7l1-2 3 2c2.183.279 2.183.279 4.5.188l2.344-.02c2.34-.095 2.34-.095 5.156-1.168 1.009-1.766 1.009-1.766 2-4l2.063-2.812c2.135-3.512 2.613-6.127 2.938-10.187z" fill="#e4cdb8"/><path d="M73 111h1v10l5 1 .188 4.313.105 2.426C79 131 79 131 77.707 132.766c-2.867 2.073-5.308 1.659-8.707 1.234-1.937-1.5-1.937-1.5-3-4-.412-3.861-.238-7.287 1-11h4l-3-4 2-1 1 1 2-1v-3z" fill="#1d1b1a"/><path d="M91.625-.062l3.602.027L98 0l1 8 11 2c-3.381 2.254-4.606 2.245-8.562 2.188l-2.941-.02C96 12 96 12 94 11l-1 2v-3l-4 1V7h-2.75C79 7 79 7 77 6c5.327-4.516 7.433-6.133 14.625-6.062z" fill="#5d5c60"/><path d="M173 56l4 1v2h-2l.563 3.188c.394 3.436.17 5.517-.562 8.813l1 3 6 2 2 2-1 2h-2v2l-5 1v2l2 2-2 2-2-2v-5l-2-3v-6-3-2h-2c-1.75-1.625-1.75-1.625-3-4 .813-3.25.813-3.25 2-6h3l1-2z" fill="#3b3c3c"/><path d="M142 131l1 3 2 1-3 5 1.813-1c2.188-1 2.188-1 5.188-1l1 3-3 1c-1.552 2.309-1.552 2.309-2.937 5.125l-1.578 3L141 153c-3.571 6.857-3.571 6.857-7 8l-.187-8.312-.076-2.381-.029-2.295-.048-2.111c.546-3.049 2.582-4.294 4.903-6.151 2.148-2.615 2.642-5.507 3.438-8.75z" fill="#341f20"/><path d="M130 14c10.091 3.1 10.091 3.1 14 6v2l1.625.75c7.723 4.065 7.723 4.065 9.75 7.75C156 33 156 33 156 37l-4-1v-2c-3.311-1.129-6.59-2.213-10-3v-3h-2l1-3-2.312-.75c-2.965-1.379-4.071-2.443-5.687-5.25v-3l-3 1v-3z" fill="#414145"/><path d="M40 181l.063 6.125.035 3.445c-.092 3.243-.484 6.249-1.098 9.43H27l1-4 .188-3.375c1.05-4.683 3.108-6.726 6.813-9.625 3.364-2 3.364-2 5-2z" fill="#9e2433"/><path d="M110.625 125.875L113 126a56.54 56.54 0 0 1-4 7c-.027 1.968-.027 1.968.375 4 .396 2.428.625 4.519.625 7l-5-1-.625 2.438L103 148c-3.125.813-3.125.813-6 1l.992-1.578c1.319-3.169 1.201-5.752 1.133-9.172l-.055-3.547L99 132h6l.375-1.875c.953-3.242 1.861-4.089 5.25-4.25z" fill="#e0d3bf"/><path d="M105.813 28.625l3.441-.004C117.751 28.728 125.07 29.77 133 33v1l-2.062-.206c-8.641-.797-17.264-1.114-25.937-1.169l-2.183-.016C90.6 32.568 79.618 34.161 68 38l-4 1c3.172-3.725 5.871-4.877 10.563-6.125l3.441-.945c9.311-2.244 18.221-3.316 27.809-3.305z" fill="#0f0f10"/><path d="M174 64h3c1.938 2.52 1.938 2.52 4 5.813 2.565 4.194 2.565 4.194 5.758 7.883L188 79c-.125 3.063-.125 3.063-1 6-3 2-3 2-5 2 .6 3.683 1.248 7.345 2 11l-3-1-2-6-2.187-3.187L175 85l1-3h5v-2h2l-1-3-2.937-1.437C176 74 176 74 174.563 72.063c-.661-2.423-.274-3.692.438-6.062l-1-2z" fill="#808182"/><path d="M131 153h2l.684 6.055c.229 2.019.229 2.019 1.316 3.945h-2l.313 2.75c.024 5.768-2.621 11.253-5.312 16.25l-3 2-3-8 2-1c.369-1.882.645-3.783.875-5.687.783-5.282 1.898-8.149 5.125-12.312.769-2.226.769-2.226 1-4z" fill="#b74052"/><path d="M140 54c4.472 1.418 8.711 3.113 13 5v2l1.75.875L161 65v5l-1.875.875c-2.258 1.062-2.258 1.062-4.125 3.125l-5-5.812-1.445-1.658C145 62.34 145 62.34 145 59l-4-1-1-4z" fill="#3e403f"/><path d="M156 34c7.185 1.762 7.185 1.762 10 5l3 1v2h4v2l2.082.367 2.73.508 2.707.492C183 46 183 46 186 48c-.155 2.709-.482 4.466-2.402 6.445-1.495 1.231-3.044 2.398-4.598 3.555l-1-2 1-2-3-1c2.076-.553 3.844-1 6-1l3-1v-2l-6-1v-2l-2.25.563C174 47 174 47 171.813 46.438L170 46l-2 2c-2.125-.375-2.125-.375-4-1v-2h-2c-1.687-2.375-1.687-2.375-3-5l1-2-4-4z" fill="#7a7a7c"/><path d="M120 41c9.354 1.715 17.908 4.978 26 10l3.813 2.188L153 55v2h2l1 3c-4.305-.651-8.025-2.163-11.937-4l-1.962-.917C134.484 51.417 126.013 47.013 120 41z" fill="#0f1110"/><path d="M37 118h2c2.081 5.462 3.485 10.06 3 16l-1 2h-2v5l-2 1-3-2c-.935-7.579-.924-15.296 3-22z" fill="#912b3d"/><path d="M48 13c2.063.188 2.063.188 4 1l1 3-2 3h-2l-.402 2.266-.535 2.984-.527 2.953L46 35h-2v8h-3c-.125-7.731-.044-15.493 2-23h2l.375-2.375C46 15 46 15 48 13z" fill="#46454a"/><path d="M33 150l3 1 1 9-3 1-1 6h2l-1 5h2l3 5 2 2h-6v-3l-2-1 1-2-2-1 1-2-2-1c-2.316-3.919-3.122-6.504-3-11l-2-3 1.938-.375L30 154l1-2h2v-2z" fill="#4c2418"/><path d="M114 128c.642 2.385 1.094 4.671 1.438 7.125.308 2.992.308 2.992 2.563 4.875 3.497.072 3.497.072 7-1 2.582-3.098 3.435-6.045 4-10h2c.458 5.728-.442 8.5-4 13-2.47 2.47-3.396 2.35-6.812 2.438-3.82-.088-5.015-.324-8.312-2.5-2.353-3.686-2.578-5.639-1.875-9.937 2-2.437 2-2.437 4-4z" fill="#bebcb5"/><path d="M22 117h2c.125 6.625.125 6.625-1 10l1 3c-.407 2.765-.877 5.455-1.437 8.188l-.447 2.271L21 146l-3-1c-.966-4.05-1.134-7.842-1.125-12l-.008-3.625c.117-2.971.252-5.539 1.133-8.375l3-2 1-2z" fill="#634f45"/><path d="M113.875 192.813c2.139 1.195 3.605 2.267 5.125 4.188v2h5v1h-20v-2h-2v-3h-2v-2c4.16-2.08 9.513-1.42 13.875-.187z" fill="#556d7d"/><path d="M121 112c4.712.589 9.203 2.116 13 5 1.269 2.414 1.578 4.258 2 7-7.625 2-7.625 2-11 2l-2-5.312-1.125-2.988C121 115 121 115 121 112z" fill="#a7a199"/><path d="M125 69c3.044 1.47 5.924 3.119 8.813 4.875A482.65 482.65 0 0 0 146 81v2l2 1-1 2h6v2l1.875.313C157 89 157 89 159 92c2.552 1.205 2.552 1.205 5 2-3.475 1.175-3.868 1.063-7.453-.652l-3.797-2.285-1.969-1.17L146 87v-2l-2-.125c-4.327-1.262-7.718-3.805-11-6.875v-2h-3v-2h-3l-2-5z" fill="#313132"/><path d="M149 178c2.563-.437 2.563-.437 6 0 6.562 4.901 10.081 11.493 13 19v3h-8l.063-2.598c-.005-6.826-.005-6.826-2.84-12.824-3.63-3.408-3.63-3.408-8.223-4.578v-2z" fill="#a9888f"/><path d="M105.563 189.813l3.566.52L112 191l1 2h-13v2h2v3h2v2H89v-6l4 1 1.875-2.437c3.534-4.261 5.413-3.555 10.688-2.75z" fill="#1f2832"/><path d="M100 21l14.087-.22 4.783-.082c16.321-.347 16.321-.347 23.13 4.302-1.605 1.609-1.605 1.609-4 3-2.863-.547-2.863-.547-6.312-1.75C121.389 22.985 110.714 23.162 100 23v-2z" fill="#434646"/><path d="M60 124h1l.297 2.047c1.064 6.932 1.064 6.932 5.703 11.953 2.454 1.227 4.2 1.202 6.938 1.25l2.652.078c2.423-.157 2.423-.157 4.215-1.488 1.676-2.58 1.49-4.482 1.383-7.527l-.082-3.012L82 125c2.823 2.412 2.983 2.825 3.375 6.813-.132 3.96-1.327 6.775-3.375 10.188h-3l-1 2-1-1c-3.005-.245-6.008-.384-9.02-.523-3.276-.524-4.636-1.169-6.98-3.477-2.311-3.317-2.094-5.814-1.625-9.75l.336-2.984L60 124z" fill="#897868"/><path d="M65 182c3.875.875 3.875.875 5 2 2.671.141 5.324.042 8 0l-1 2h-2v2c-3.888 1.756-7.759 2.677-11.914 3.535-2.262.467-2.262.467-5.086 1.465-1.607-3.215-1.057-6.436-1-10l1 3c2.437-.27 2.437-.27 5-1l2-3z" fill="#a68785"/><path d="M174 104c2 1 2 1 2.887 3.547l.801 3.203.824 3.172c.491 3.093.373 5.097-.512 8.078-1 1-1 1-4.062 1.063L171 123c-.934-3.01-1.044-3.867 0-7l-1-7h3l2-3-2-1 1-1z" fill="#444445"/><path d="M41 157c3.456 2.304 3.488 2.788 4.316 6.648l.627 2.797.619 2.93 1.254 5.711.545 2.564c.63 2.321 1.554 4.215 2.638 6.35.012 2.113.012 2.113-.312 4.313l-.328 2.359L50 193l-.562 4.063L49 200h-3l.359-3.262c.812-8.614.716-15.322-2.301-23.578-1.76-5.253-2.377-10.679-3.059-16.16z" fill="#81202e"/><path d="M56 118c2 0 2 0 3.645 1.594 1.819 3.229 1.458 5.255 1.043 8.906-.379 3.555-.687 6.918-.687 10.5-2 3-2 3-4 5-.924-2.771-1.129-4.449-1.133-7.309l-.004-2.514.012-2.615-.012-2.604.004-2.518.003-2.291c.13-2.165.535-4.069 1.129-6.151z" fill="#a69789"/><path d="M69 166c1.625 1 1.625 1 3 3-.35 2.816-1.15 5.272-2 8h3l2-4 3 8-8 1-1-4-8-1 2.875-4.375 1.617-2.461C67 168 67 168 69 166z" fill="#bdb09e"/><path d="M39 109c2 1 2 1 2.594 2.702l.476 2.192.527 2.396.527 2.521.551 2.486C44.478 125.016 45 128.162 45 132h2l2.938 8.25.842 2.355.811 2.285.746 2.095c.656 1.989 1.183 3.978 1.664 6.015-6.248-5.647-8.575-13.969-10-22h-2c-2.436-7.497-3.411-14.123-3-22z" fill="#51343c"/><path d="M165 125h2c.705 4.073 1.052 7.037 0 11a224.82 224.82 0 0 0-.062 8.25l.014 2.258L167 152l-4 2v-2h2v-3h-2l-1.062-7.187-.314-2.041c-.545-3.85-.667-7.012.377-10.771h3v-4z" fill="#575859"/><path d="M109 32c12.402-.378 22.231 2.253 34 6-4.707 1.569-8.83-.243-13.555-1.406-4.155-.716-6.829-.118-10.758 1.156-3.983.371-7.081-1.166-10.687-2.75l1-3z" fill="#3c3c3c"/><path d="M163 112c4.902 4.167 4.902 4.167 5.375 8.188C168 123 168 123 167 125h-2l1 6-1-2h-3l-1 2v-6l-2-1v-3h2l-.125-2.812C161 115 161 115 163 112z" fill="#454648"/><path d="M41 46l3 2c-1.875 1.063-1.875 1.063-4 2l-2-1v3l3 1-2.336 1.102c-6.302 2.931-6.302 2.931-10.352 8.273L28 65h-2l1 4h-2v9h-1c-.622-8.819-.326-15.695 5-23 2.438-2.685 4.881-5.127 8-7h4v-2z" fill="#818286"/><path d="M66.75 176.625C69 178 69 178 69.813 180.125L70 182l2-1h6l-1.937.875c-2.215.953-2.215.953-3.062 3.125l-8-2-2 3c-2.625.188-2.625.188-5 0l1-8c2.975-1.53 4.434-2.129 7.75-1.375z" fill="#cdc1ba"/><path d="M61 115h2l.148 3.578.227 4.672.094 2.355c.213 5.496.213 5.496 2.531 10.395 4.296 1.91 9.654 1.449 14 0 1.667-1.5 1.667-1.5 3-3-.566 3.283-1.37 4.93-4 7-4.483.775-8.727.515-12.937-1.187-4.089-3.593-5.167-6.608-5.625-11.937l-.129-2.57c-.173-2.578-.173-2.578-2.309-5.305l2-2 2 1-1-3z" fill="#271f18"/><path d="M99 27c12.098-.338 23.264-.314 35 3v2l2.563.25c4.159.907 6.833 2.515 10.438 4.75-3.551 1.184-3.981.808-7.25-.687C126.441 30.77 113.235 29.098 99 28v-1z" fill="#4b4c4c"/><path d="M85 130c2.033 2.254 2.97 3.465 3.145 6.543l-.332 2.645-.293 2.668L87 144l-2 1-2-1-1 5h-2v-2l-2.375-.375C75 146 75 146 73 144c-2.584-.167-2.584-.167-5 0v-2h14c1.171-3.981 2.257-7.916 3-12z" fill="#a4917c"/><path d="M129 190l3 4 4-2c1.5 1.188 1.5 1.188 3 3v5h-15l5-10z" fill="#32090b"/><path d="M94 151h2l2 8 7-3c3.746.179 7.468.519 11.203.844 3.477.143 6.406-.128 9.797-.844-3.277 2.899-5.679 3.529-10 4l-2.445.313c-6.665.76-12.907.523-19.555-.312v-9z" fill="#e0c9bc"/><path d="M165 96l5 1v2l5-2 2 2-3 2 2 2h-2l1 6h-6c-3.304-4.066-3.572-7.952-4-13z" fill="#3d3e3e"/><path d="M117 184l7 1v2l3-1c1 1 1 1 1.25 3.375-.25 2.625-.25 2.625-1.437 4.438-2.426 1.589-3.966 1.552-6.812 1.188-2.398-2.398-2.343-3.333-2.625-6.625l-.227-2.477L117 184z" fill="#e2d4c4"/><path d="M154 146c1.563 1.063 1.563 1.063 3 3-.111 5.416-2.01 9.839-4.16 14.766-1.016 2.305-1.016 2.305-.84 5.234h-2v2l-3-1h2l-1.25-2.437c-1.045-4.964.575-8.343 3.25-12.562l3-2 1-1-2-1 1-5z" fill="#906f66"/><path d="M107 180l7 2 1 7-7 1v-2l-1.937-.312L104 187l-1-3 4-4z" fill="#e3d4bb"/><path d="M81.438 160.125L86 162c-3.242 3.891-6.124 4.868-11 6l-2.437.625L71 169l-2-4c3.88-4.663 6.347-6.772 12.438-4.875z" fill="#917965"/><path d="M46 31h1l1 17 3-2v3l-1.937.375L47 50l-1 2-5-4-2-1 1-6 3 1 1-7h2v-4z" fill="#434248"/><path d="M33 104l3 1-3 17-3 1c-1.286-8.429-1.286-8.429 0-13l-2-1 5-5z" fill="#1a1312"/><path d="M81.125 184.313C84 185 84 185 85 186l4.563.563 2.504.254L94 187v-2h4l2 4c-8.345 2.328-16.651.582-25-1v-2c3-2 3-2 6.125-1.687z" fill="#7a7766"/><path d="M99 132h6l-1 3 .941 7.625C105 145 105 145 103 148c-3.125.688-3.125.688-6 1l.992-1.578c1.319-3.169 1.201-5.752 1.133-9.172l-.055-3.547L99 132z" fill="#dbc4ae"/><path d="M48 162c1.563 1.5 1.563 1.5 3 4l-.672 5.961c-.433 2.69-.396 5.321-.328 8.039l4 2v8h-2v4h-2l-1 3 .289-2.703.336-3.547.352-3.516c.024-3.344-.449-4.397-1.977-7.234l-.687-6.437-.262-3.371c-.047-2.929.245-5.36.949-8.191z" fill="#750d1d"/><path d="M99 108c3.367 1.684 5.836 3.311 8.75 5.625l2.422 1.914L112 117l-2 1-2-1-1 3h-2v2h-2l-1 2-3-16z" fill="#969089"/><path d="M173 56l4 1v2h-2l.625 3.188c.375 3.809.091 5.481-1.625 8.813l-2-1v-2h-2c-1.75-1.625-1.75-1.625-3-4 .813-3.25.813-3.25 2-6h3l1-2z" fill="#56585b"/><path d="M93 0h5l1 8 11 2c-3.364 2.242-4.623 2.271-8.562 2.25l-2.941.016C96 12 96 12 94 10V7l-1.062-2C92 3 92 3 93 0z" fill="#6b6b6e"/><path d="M50 84h3l.625 3.25C55.656 95.388 59.793 102.519 65 109l1 3-3 1-1.5-3.25c-1.899-3.847-4.186-7.286-6.625-10.812C51.948 94.626 49.786 91.165 49 86l1-2z" fill="#232325"/><path d="M145 180l2 2-4 3 .473 2.52.59 3.293.598 3.27C145 197 145 197 144 200h-4l-.687-6.187-.387-3.48c.084-3.78.778-5.374 3.074-8.332l3-2z" fill="#6f0d17"/><path d="M46 61c2.078 1.717 2.95 2.851 3.813 5.438.219 2.996-.4 3.964-1.812 6.563l-1.07 2.141L44 81h-1c-.376-12.711-.376-12.711 2-19l1-1z" fill="#55575b"/><path d="M109 132h1l.332 1.898.48 2.477.457 2.461c.606 2.522.606 2.522 3.73 4.164a30.97 30.97 0 0 0 10 0c3.241-2.836 4.616-5.963 6-10 .917 2.493 1.178 3.586.109 6.07l-1.359 2.055-1.328 2.07c-1.841 2.337-3.545 3.649-6.508 4.176-4.269.124-6.294.077-9.852-2.496-2.604-3.63-4.405-6.703-3.687-11.25L109 132z" fill="#53473a"/><path d="M113 11l5.313-.187 2.988-.105C124 11 124 11 125.855 12.512L127 14c-3.875 1-3.875 1-5 1l-2 1-2-1v2h-10v-5l5 1v-2z" fill="#545456"/><path d="M136 164l3 1-3 8h-2l-.062 3.188c-1.141 4.641-2.555 5.533-6.441 7.965L126 185c4.649-15.649 4.649-15.649 10-21z" fill="#ab2b39"/><path d="M100 104l1 4h-2l1 2v7h-3v-3l-4-1-1-5h-2v-2l1.875 1c2.035 1.142 2.035 1.142 4.125 1l-3-3c2.463-1.231 4.28-1.072 7-1z" fill="#1b1b1a"/><path d="M46 56l1 3c2.369 1.491 4.373 2.082 7.125 2.688C57 63 57 63 58.375 66.625L59 70h-2v-2l-5 3-1-5h-2c-2.012-2.334-3.016-4.048-4-7l-2-1h3v-2z" fill="#393c3d"/><path d="M145 177l4 1v2l3-1 1.75 2.313c2.053 2.709 2.053 2.709 4.5 4.188 1.75 1.5 1.75 1.5 2 4.188L160 192c-4.75.125-4.75.125-7-1-.674-2.089-1-3.804-1-6-2.309-2.628-3.64-3.88-7-5v-3z" fill="#89454e"/><path d="M30 178c1 2 1 2 .441 3.945l-.879 2.18-.871 2.195L28 188h-2l-.187 1.813C24.676 192.871 22.827 193.55 20 195c-.182-4.008-.109-6.573 2-10 1.945-1.922 1.945-1.922 4.125-3.75l2.195-1.859L30 178z" fill="#a1848c"/><path d="M98 164h4v6l-2 2c-.243 2.899-.243 2.899-.125 6.125l.055 3.32L100 184c-2-3-2-3-2-6h-2l-.125-5.875-.07-3.305C96 166 96 166 98 164z" fill="#b1a38e"/><path d="M115 161l.938 2.375L118 168h-4v-2h-2l.438 4.25.246 2.391c.293 2.183.737 4.237 1.316 6.359h-3l-1.5-6.812-.844-3.832C108 165 108 165 108 162c2.463-1.231 4.28-1.072 7-1z" fill="#bca695"/><path d="M149 138l1 3-3 1c-1.552 2.309-1.552 2.309-2.937 5.125l-1.566 2.996L141 153l-4 7c-1.6-3.201-.032-5.723 1-9h2l-.125-3.25c.17-5.111.17-5.111 2.125-7.75 2.621-1.691 3.826-2 7-2z" fill="#423334"/><path d="M114.188 9.938L118 10v1h-5v2l-3 1-1 1c-4.45 2.292-8.107 2.166-13 2l4-2-4-2v-1l2.301-.184 3.012-.254 2.988-.246c3.471-.407 6.352-1.437 9.887-1.379z" fill="#3f4042"/><path d="M134 173c1.042 3.127.971 4.293.441 7.449l-.42 2.568-.459 2.67-.447 2.705L132 195l-2-3-2 1c-.652-3.023-1.14-5.902-1-9 2.313-2.125 2.313-2.125 5-4 1.358-3.625 1.358-3.625 2-7z" fill="#952629"/><path d="M155 57c4.002 2.172 6.869 4.708 10 8l2.313 2.188C169 69 169 69 169 71h2v2h-2l-1 3-1-5h-2l-1-3-3-1v-2l-2.312-.812c-2.561-1.132-3.884-2.1-5.687-4.187l2-1v-2z" fill="#282a2a"/><path d="M156 34c7.332 1.798 7.332 1.798 10 5l3 2h-2v3h2l-1 4-4-1v-2h-2c-1.687-2.375-1.687-2.375-3-5l1-2-4-4z" fill="#44464a"/><path d="M57 47c-1 3-1 3-4.062 4.688L50 53h5c-2.72 1.849-4.028 1.998-7.375 1.75A67.05 67.05 0 0 1 38 52v-3l3.375.5c4.303.795 4.303.795 7.938-1C52.207 46.884 53.75 46.721 57 47z" fill="#343439"/><path d="M125 161l-.375 4.438-.211 2.496L124 170l-2 1-2-2-2.625-2.437C115 164 115 164 115 161c7.75-1.125 7.75-1.125 10 0z" fill="#921726"/><path d="M63 152l12 6v3c-3 2-3 2-7 2v-4l-3 1-2-8zm3 11h2l-1 2-1-2z" fill="#431012"/><path d="M129 129h2c.458 5.728-.442 8.5-4 13-2 2-2 2-3.945 2.195L117 144l-1-3 1.863-.262c5.203-.808 5.203-.808 9.137-4.051.957-2.573 1.612-4.972 2-7.687z" fill="#dad6ce"/><path d="M26 188c1.456 4.521.27 7.516-1 12h-7c-1.033-2.788-1.045-3.868-.062-6.75L19 191l2 3c2.016-.716 2.016-.716 4-2 .805-2.05.805-2.05 1-4z" fill="#8b5b69"/><path d="M128 168h2c.314 5.959-.191 9.707-3 15l-2 1-3-8 1.875-1.187c2.45-2.09 3.144-3.787 4.125-6.812z" fill="#ba4d59"/><path d="M113 169c1.813.188 1.813.188 4 1l3 5 3 2c.188 3.125.188 3.125 0 6-2.875-1.062-2.875-1.062-6-3-1.375-3.687-1.375-3.687-2-7h-2v-4z" fill="#eee7d7"/><path d="M131 137c1.204 3.611.712 4.241-.875 7.563l-1.117 2.379L127 151l-5-1-2.437-.375c-3.13-.763-5.73-2.11-8.562-3.625l1-2 3 2c2.183.279 2.183.279 4.5.188l2.344-.02c2.34-.095 2.34-.095 5.156-1.168 1.125-1.833 1.125-1.833 2-4l2-4z" fill="#cdb6a1"/><path d="M112.375 120.313L114 121l1 4-1.645.516c-5.661 1.905-5.661 1.905-9.355 6.484v-9c5.415-3.077 5.415-3.077 8.375-2.687z" fill="#c5bab0"/><path d="M38 153c5.887 5.887 6.855 15.736 7.125 23.688L45 179l-6-1 2-1c.178-5.615-.14-10.465-1.488-15.914-.656-2.673-1.093-5.367-1.512-8.086z" fill="#4f0f12"/><path d="M121 115c2.93 2.93 3.941 5.68 4.125 9.813L125 127h-6l3-2-7-5 2-4 4 1v-2z" fill="#2e2e2a"/><path d="M24 111l4 1 1 10-2-2-4 2v-3l-1 2-3-1 5-9z" fill="#6c5142"/><path d="M43 66c1.251 3.753.677 5.962.004 9.855l-.341 2.005-1.101 6.327-.736 4.295L39 99h-1c-.248-6.498.067-12.861.813-19.312l.212-2.027c.551-4.415 1.79-7.799 3.975-11.66z" fill="#3a3b40"/><path d="M114 190c4.316 2.316 4.316 2.316 6 4h5v-2h3c-1.875 5.875-1.875 5.875-3 7-2.812.375-2.812.375-6 0-2.187-2.312-2.187-2.312-4-5l-3-3 2-1z" fill="#b4a499"/><path d="M74 193c3.873 1.144 7.003 2.233 10 5v2H71l3-7z" fill="#253b4c"/><path d="M35 108c2.386 3.579 2.786 5.716 3 10-.706 1.669-1.419 3.337-2.23 4.957-1.559 4.138-1.54 8.661-1.77 13.043h-1v-9h-2v-3h3l-.035-2.484-.027-3.266-.035-3.234c.083-2.549.351-4.595 1.098-7.016z" fill="#64403b"/><path d="M114 29c6.575.62 12.667 2.149 19 4v1l-2.106-.199c-8.21-.735-16.406-1.101-24.644-1.364l-3.883-.131L93 32v-1l21-1v-1z" fill="#242323"/><path d="M36 123h2l.063 6.375.035 3.586C38 136 38 136 37 138h-3l-.125-6.375-.07-3.586C34 125 34 125 36 123z" fill="#b45d6d"/><path d="M165 191c1.648 2.967 2.443 5.656 3 9h-8v-8l5-1z" fill="#994b58"/><path d="M120 38l9 2v2l3-1v2l2.313.313c2.858.731 3.845 1.457 5.688 3.688-6.005-.649-11.401-2.858-17-5l-1 2-4-2v-2h2v-2z" fill="#434544"/><path d="M25 161c4 1 4 1 5.195 2.637l.93 2.051.992 2.184C33.886 172.136 35 175.346 35 180l-3-1v-5h-2l-5-13z" fill="#665c57"/><path d="M93 53c7.855.308 14.041 3.531 21 7v2h4c2.25 2.5 2.25 2.5 4 5-4.336-1.294-7.857-2.982-11.687-5.375C104.743 58.286 99.178 55.958 93 54v-1z" fill="#343434"/><path d="M130 14c10.091 3.1 10.091 3.1 14 6v2h2l-1 4-1.75-1.937c-2.231-2.045-3.324-2.645-6.25-3.062l-1 2c-3-3.625-3-3.625-3-7l-3 1v-3z" fill="#7e7e81"/><path d="M78 167l5 1c1.25 6.625 1.25 6.625-1 10l-5-1 .5-3.312c.567-3.563.567-3.563.5-6.687z" fill="#e9dac3"/><path d="M134 128h3c.376 6.802-.225 11.757-3 18h-2l.438-2.812c.726-5.042 1.131-10.114 1.563-15.187z" fill="#e6d9cb"/><path d="M65 182c3.875.875 3.875.875 5 2 2.671.141 5.324.042 8 0l-1 2-2.336-.105-3.039-.082-3.023-.105L66 186l-2 3-7-1v-5l1 3c2.437-.27 2.437-.27 5-1l2-3z" fill="#b6afa6"/><path d="M36 179l8 1-1 4h-2v16h-2v-18l-2 2-1-5z" fill="#831622"/><path d="M117 160v1l-9 1-1 4-2-1v-2h-9l2-1v-2l2.047.035 2.703.027 2.672.035c10.394-.394 10.394-.394 11.578-.098z" fill="#d1c0ad"/><path d="M152 140l3 2v2c1.892.681 1.892.681 4 1l2-2 1 9h-3c-2.043-2.187-2.043-2.187-4.187-5l-2.168-2.812L151 142l1-2z" fill="#181818"/><path d="M41 134c1.405 3.891.695 7.231.063 11.25l-.59 3.828L40 152c-2.952-2.952-3.087-5.955-4-10h-2l1-2 3 1 1-5h2v-2z" fill="#8a1b2b"/><path d="M160 67l3 1-1 2h2c.8 3.287 1.097 4.71 0 8-2 0-2 0-3.625-1.5L159 75l-1 2v-2h-2l-1-4 5-1v-3z" fill="#383a39"/><path d="M45 176h1c.688 3.313.688 3.313 1 7l-1.406 1.281c-2.456 2.649-2.361 5.381-2.781 8.906l-.48 3.855L42 200h-1v-16h2v-3l-2-2h4v-3z" fill="#6f0f1a"/><path d="M107.688 190.25l2.387.266L112 191l1 2h-13v2h2v3h2v2h-8l1.25-3.875.703-2.18c2.187-4.063 5.486-4.229 9.734-3.695z" fill="#2c3a47"/><path d="M69 190c-1.062 2.938-1.062 2.938-3 6-3.687.875-3.687.875-7 1l-1-4c3.833-2.706 6.325-3.326 11-3z" fill="#90726e"/><path d="M174 64h3c1.605 1.969 1.605 1.969 3.188 4.5l1.605 2.531L183 73l-1 2c-2.875-.25-2.875-.25-6-1-1.437-1.812-1.437-1.812-2-4l1-4-1-2z" fill="#66666a"/><path d="M160 135h2l1 14h2v3h-2v2h-6l-1-5h2l3 3-1-17z" fill="#363535"/><path d="M127 29l7 1v2l2.563.25c4.159.907 6.833 2.515 10.438 4.75-3.624 1.208-4.3.693-7.687-.812-4.408-1.871-8.643-3.15-13.312-4.187l1-3z" fill="#454645"/><path d="M129 190c3.006 3.006 2.596 5.824 3 10h-8l5-10z" fill="#461215"/><path d="M72.625 188.875L75 189l-1 3-2 .813L70 194c-.816 3.059-.816 3.059-1 6l-1-3-8 1c3-2 3-2 6-2l.875-2.375c1.428-3.331 2.024-4.573 5.75-4.75z" fill="#483739"/><path d="M49 52h8c-2 2-2 2-5.625 2.125L48 54l1-2zm6 2l1 3c-1.437 2.188-1.437 2.188-3 4l-5-4v-2c3-1 3-1 7-1z" fill="#4d4d52"/><path d="M117 32c9.34.214 17.327 2.828 26 6-3.142 1.047-3.969.985-7.055.258l-2.363-.543-2.457-.59-4.805-1.117-2.269-.534c-2.342-.541-4.691-1.024-7.052-1.474v-2z" fill="#444544"/><path d="M106.625 191.938l2.477.027L111 192v1h-5l2 7h-4v-2h-2v-3h-2v-2c2.405-1.203 3.95-1.101 6.625-1.062z" fill="#405866"/><path d="M69 166l3 3c-1 2-1 2-4 4-1.192 2.05-1.192 2.05-2 4h-5l2.875-4.375 1.617-2.461C67 168 67 168 69 166z" fill="#c1a9a2"/><path d="M58 136c6.705 4.114 6.705 4.114 7.938 7.813L66 146c-2.312.25-2.312.25-5 0-2.653-2.379-2.981-3.671-3.187-7.25L58 136z" fill="#b29983"/><path d="M83 1c2.915 1.074 4.778 1.778 7 4-2 2-2 2-4.375 2.125L83 7h-4l-2-1 6-5z" fill="#69696b"/><path d="M87 192l1 8h-3l-3-5-2-1v-2c2.667-1.333 4.167-.671 7 0z" fill="#4a6271"/><path d="M89 162c-.306 3.674-.758 4.781-3.562 7.313L83 171l-1-3-6-1v-1l3.25-.875C82.458 164.163 85.685 162 89 162z" fill="#cbb4a0"/><path d="M134 187l3 2 2-1c.982 4.053 1.082 7.839 1 12h-1l-.875-2.937c-.767-3.169-.767-3.169-3.125-4.062l-3 1c.875-5.875.875-5.875 2-7z" fill="#4c1111"/><path d="M146 168c3 2 3 2 4 4l-1 6-4-1-1 3c-1.019-3.891-1.168-5.606.438-9.375L146 168z" fill="#5b3122"/><path d="M147 140c1.302 3.603.708 5.677-.687 9.188l-1.012 2.668C144 154 144 154 141.855 154.801L140 155c1.545-5.479 4.155-10.114 7-15z" fill="#8e3c44"/><path d="M98 131l4 1-2 2 .188 5.813c.129 5.643.129 5.643-1.293 8.09C97.5 149.25 97.5 149.25 95 151c.875-5.875.875-5.875 2-7l-.062-8.434C97 133 97 133 98 131z" fill="#cab29a"/><path d="M108 117c7.571 1.857 7.571 1.857 10 5-4 0-4 0-5.875-.625-3.184-.562-5.236.277-8.125 1.625-.969 2.032-.969 2.032-1 4v-5h2v-2c1.5-1.625 1.5-1.625 3-3z" fill="#a49b95"/><path d="M174 104c2 1 2 1 2.887 3.547l.801 3.203.824 3.172c.491 3.093.373 5.097-.512 8.078-1 1-1 1-3.562 1.063L172 123l4-1 1-7h-2c-1.125-5.625-1.125-5.625 0-9l-2-1 1-1z" fill="#9f9f9f"/><path d="M99 190h-2l-1 3h-2l-1 3c-3.736-1.245-4.188-2.634-6-6l4.313-.562 2.426-.316C96 189 96 189 99 190z" fill="#5c5e4f"/><path d="M128 150h2c-.573 2.867-.861 3.861-3 6-2.632.856-5.295 1.389-8 2l-1-2c1.625-2 1.625-2 4-4 3.25-.25 3.25-.25 6 0v-2z" fill="#efcfbf"/><path d="M164 135c2.846 2.846 2.456 5.804 2.625 9.625l.117 2.141L167 152l-4 2v-2h2l-1-3-.062-7.187.027-3.855L164 135z" fill="#848586"/><path d="M127 118h2l1 4h2l1 3-8 1v-6h2v-2z" fill="#bcb6aa"/><path d="M138 85c5.405 1.52 8.985 5.274 13 9l-2 3-5.176-5.18-4.262-4.195C138 86 138 86 138 85z" fill="#1f2022"/><path d="M68 154h8l1 2 2-1 1 2 5 2c-3.715 1.858-8.134.05-12-1-3.125-1.562-3.125-1.562-5-3v-1z" fill="#bfa396"/><path d="M106 167h3c1.176 3.674 1.074 7.169 1 11h-3c-1.203-2.405-1.101-3.95-1.062-6.625l.027-2.477L106 167z" fill="#e7dac8"/><path d="M64 112h2l3.125 4 1.633 2.25L72 120l-9-1v-6l1-1z" fill="#69655e"/><path d="M42 28l2 1v14h-3c-.103-5.126-.036-9.95 1-15z" fill="#666568"/><path d="M149 26c2.375.688 2.375.688 5 2 1.313 2.625 1.313 2.625 2 5-3 1-3 1-6.187-.437L147 31v-3h2v-2z" fill="#636365"/><path d="M43 23l1 2 4-2-2 12h-2l-1.062-5.437-.598-3.059L42 24l1-1z" fill="#5a595d"/><path d="M57 35c5.75-.125 5.75-.125 8 1l1 2 4-1c-2 3-2 3-4.312 3.875-3.479.162-4.968-.76-7.687-2.875l-1-3z" fill="#3d3c40"/><path d="M57 142c2 0 2 0 4 1.938L63 146l2 1v5c-3.796-1.491-5.717-3.657-8-7v-3z" fill="#c2a99a"/><path d="M58 120l3 2-.219 2.703-.281 3.547-.281 3.516L60 139c-2.528-3.792-2.224-6.809-2.125-11.187l.027-2.271L58 120z" fill="#9a8b7a"/><path d="M98 123l5 1 1 8c-2.493-.997-3.775-1.651-5.25-3.937C98 126 98 126 98 123z" fill="#3d3836"/><path d="M74 110l7 6-2 2h-3l-2 3v-11z" fill="#837d76"/><path d="M177 75l7 2-1 3h-2v2l-3 1c-1.429-2.354-2.087-3.48-1.625-6.25L177 75z" fill="#454647"/><path d="M58 1l5 1v6l-2.437.375L58 9l-1 2-2-1 1-3h2V1z" fill="#3d393f"/><path d="M109 182h5l1 7c-2.915-1.074-4.778-1.778-7-4l1-3z" fill="#f5e7cd"/><path d="M75 160c1.231 2.463 1.072 4.28 1 7l-5 2-2-4 6-5z" fill="#9c8577"/><path d="M39 109l2 1 1.625 8.063.406 2.299L44 126l-2-1v-3h-3v-13z" fill="#3f393d"/><path d="M143 27c4.014 1.376 6.723 3.343 10 6h2l1 4-4-1v-2c-3.311-1.129-6.59-2.213-10-3l1-4z" fill="#454649"/><path d="M82 125c1.5 1 1.5 1 3 3 .428 4.419.463 6.941-1.312 11L82 141h-3l.938-1.687c2.169-4.72 2.163-9.169 2.063-14.312z" fill="#706253"/><path d="M77 121c2.238.48 3.994.996 6 2.125 2.471 1.081 3.469.55 6-.125l2 2-2.375.938L84 128l-3-3-1 5h-1v-8l-2-1z" fill="#918679"/><path d="M99 108c4 2 4 2 5 4l-.437 6.125-.309 3.32L103 124h-1l-3-16z" fill="#716e6a"/><path d="M33 104l3 1-3 16h-1l-.062-7.937-.025-2.287A182.68 182.68 0 0 1 32 105l1-1z" fill="#100a09"/><path d="M165 96l5 1v10h-2c-1.611-3.651-2.449-7.051-3-11z" fill="#313133"/><path d="M155 57c3.515 1.9 5.896 3.566 8 7v2c-4.431-1.208-6.981-2.517-10-6l2-1v-2z" fill="#1f1f21"/><path d="M133 147l2 1-1 13h-1v-8h-2v2l-3-1 1.938-2.375c2.044-2.42 2.044-2.42 3.063-4.625z" fill="#8c464c"/><path d="M85 130c1.625 1.563 1.625 1.563 3 4-.812 3.75-.812 3.75-2 7h-2l-1 2c-1.236-3.708-.496-4.51 1-8l1-5z" fill="#8f7a65"/><path d="M42 114c2 2 2 2 2 6h2v12c-1.65-3.3-2.449-5.481-3.125-9l-.508-2.562C42 118 42 118 42 114z" fill="#28262a"/><path d="M48 55l5 5 2-1 1 4c-4.458-.51-6.585-2.198-10-5-2.182-.778-2.182-.778-4-1 3-2 3-2 6-2z" fill="#414449"/><path d="M113 193c2.622 1.049 3.794 1.649 5.25 4.125L119 199h5v1h-10l-1-7z" fill="#534f52"/><path d="M129 184l4 2-1 9-2-3-2 1c-.125-6.75-.125-6.75 1-9z" fill="#742123"/><path d="M129 159c1.214 3.496.777 5.691-.312 9.188l-.801 2.668C127 173 127 173 125 174l.313-5.25.176-2.953c.558-3.05 1.475-4.504 3.512-6.797z" fill="#ad384b"/><path d="M93.125 159.438l2.758.309L98 160l-1 4c-4.557-.438-7.577-.85-11-4 2.623-1.312 4.23-.896 7.125-.562z" fill="#bea794"/><path d="M111 136l2 3 2-3 3 5h-2l1 3c-2.375-.687-2.375-.687-5-2-1.312-2.625-1.312-2.625-2-5l1-1z" fill="#b8b3ac"/><path d="M128 125h7l-2 1v6l-4-3v5h-1v-9z" fill="#868377"/><path d="M99 189l4 2-4 1v3l-4 2-2-2c3.75-4.875 3.75-4.875 6-6z" fill="#2b3233"/><path d="M65 167l3 1-7 9-3-1 2-1 .938-2.375c1.046-2.585 1.984-3.83 4.063-5.625z" fill="#4e151a"/><path d="M89 162l6 2-3 1v2l-3 2c-1.192 2.05-1.192 2.05-2 4-.955-2.17-1.144-3.563-.398-5.824L89 162z" fill="#95826c"/><path d="M55 141c2.011 2.56 3.628 5.046 5 8l-5 4-.562-4.875-.316-2.742C54 143 54 143 55 141z" fill="#462021"/><path d="M127 187h1c.361 4.449.361 4.449-1.187 6.813-2.446 1.603-3.946 1.628-6.812 1.188l-2-3 1.715-.332 2.223-.48 2.215-.457L126 190l1-3z" fill="#cfbdb1"/><path d="M118.563 160.938L122 161l-2 3v4c-2.622-1.049-3.794-1.649-5.25-4.125L114 162c1-1 1-1 4.563-1.062z" fill="#781c23"/><path d="M125 140l1 3c-1 1-1 1-2.848 1.098L117 144l-1-3 9-1z" fill="#d1cdc9"/><path d="M92 125v2l-2 1.938c-2.348 1.943-2.348 1.943-2 5.063l-2-1-1-7c2.463-1.231 4.28-1.072 7-1z" fill="#aa9783"/><path d="M171 112l2 1c.633 2.066.633 2.066 1.125 4.563l.508 2.504L175 122l-4 1c-1.374-3.818-.68-7.073 0-11z" fill="#353537"/><path d="M25 78h2l-1 4h2v2h-2l1 6-3-2c-.328-2.129-.328-2.129-.25-4.562l.047-2.441C24 79 24 79 25 78z" fill="#6f7072"/><path d="M41 46l3 2c-1.875 1.063-1.875 1.063-4 2l-2-1-1 3c-1.875 1.063-1.875 1.063-4 2l-3 2c1.493-3.8 3.624-5.749 7-8h4v-2z" fill="#a3a4a8"/><path d="M57 36l1 2 4 2-4 1v2l-4 1c.547-3.375 1.055-5.082 3-8z" fill="#525155"/><path d="M84 191l-4 1v2l1.938.75C84 196 84 196 84.75 198.125L85 200l-2.312-1.937c-2.57-2.205-2.57-2.205-5.687-3.062v-4c3.01-.934 3.867-1.044 7 0z" fill="#3d5268"/><path d="M66 185c2.164.023 2.164.023 4.625.375l2.477.336L75 186v2l-4.375.625-2.461.352L66 189l-2-2 2-2z" fill="#a29891"/><path d="M20 149c3 1 3 1 3.914 2.777l.711 2.16L27 160c-1.812-.062-1.812-.062-4-1-1.813-3.496-3-6.04-3-10z" fill="#a0948d"/><path d="M106 133h2l3 11h-3c-1-3-1-3-1-5h-2l1-6z" fill="#d0c4b0"/><path d="M159 97c7.985 6.563 7.985 6.563 10 10v3c-3-1-3-1-4.437-3.812L163 103l-4-4v-2z" fill="#121315"/><path d="M100 104l1 4h-2v5l-1-3-2-1-3-4c2.463-1.231 4.28-1.072 7-1z" fill="#111110"/><path d="M46 61c2.899 2.395 3.502 4.312 4 8l-4-1v-2h-2c.875-3.875.875-3.875 2-5z" fill="#51565b"/><path d="M25 194c1.125 3.75 1.125 3.75 0 6h-7v-3l7-1v-2z" fill="#a75e73"/><path d="M31 175l2 4h3l1 3c-1 1-1 1-4.062 1.063L30 183c-.125-5.75-.125-5.75 1-8z" fill="#6c363e"/><path d="M137 168c1.03 3.198.945 5.366.188 8.625l-.52 2.352C136 181 136 181 134 183c-.363-5.802.743-9.64 3-15z" fill="#701d13"/><path d="M129 155v3c-4.229 2.417-7.123 3.348-12 3 9-6 9-6 12-6z" fill="#8b3438"/><path d="M19 134h2c.762 4.316 1.161 7.744 0 12l-3-1c-1.895-3.789-.244-7.194 1-11z" fill="#7f6658"/><path d="M142 131l1 3 2 1-2 2-2 7-2-1 .938-4.312.527-2.426C141 134 141 134 142 131z" fill="#252627"/><path d="M40 122h2l2.063 4.75 1.16 2.672c.823 2.731.755 3.947-.223 6.578l-1-5h-2l-2-9z" fill="#624046"/><path d="M61 115h2v12l-2-4-3-4 2-2 2 1-1-3z" fill="#302c29"/><path d="M47 40l3 1-1 3 4-1c-1.245 3.736-2.634 4.188-6 6v-9z" fill="#151419"/><path d="M114.188 9.938L118 10v1h-5v2l-3 1-1 1-4-1c2.649-3.973 4.695-4.136 9.188-4.062z" fill="#363637"/><path d="M24 153l4 1v3l1 5-5-1 1-3c-.875-2.167-.875-2.167-2-4l1-1z" fill="#563d33"/><path d="M71 134h10l-1 3c-3.473 1.158-6.361 1.069-10 1v-1h5v-2l-4-1z" fill="#979490"/><path d="M108 126h5c-1.293 2.884-2.659 4.872-5 7v-3h-2l2-4z" fill="#d2c6b6"/><path d="M120 41c4.836.99 9.476 1.957 14 4-1.672 1.148-1.672 1.148-4 2-2.578-.898-2.578-.898-5.25-2.375l-2.703-1.461L120 42v-1z" fill="#131514"/><path d="M164 193l4 4v3l-5-1-1-3 2-3z" fill="#9b6975"/><path d="M32.563 182.938L35 183l-2.875 3.5-1.617 1.969L29 190h-2c2.228-6.981 2.228-6.981 5.563-7.062z" fill="#9a3c4e"/><path d="M187 79c1.125 3.75 1.125 3.75 0 6h-4l-1-4 5-2z" fill="#3e3e3e"/><path d="M61 15l1 3 3 1h-3l1 4-2 1-2 3-.125-4.312-.07-2.426C59 18 59 18 61 15z" fill="#1c1b1f"/><path d="M47 14l3 1-4 8h-2l-1-3h2l.438-2.437C46 15 46 15 47 14z" fill="#6a6a6d"/><path d="M117 184l3 1c1.188 2.563 1.188 2.563 2 5l-4 2-1-8z" fill="#eee4d1"/><path d="M96 178h2l.25 3.875c.209 2.178.209 2.178.75 4.125 1.921 1.59 1.921 1.59 4 2v2c-3.875-1.875-3.875-1.875-5-3v-5h-2v-4z" fill="#a49a84"/><path d="M114 177l1 2 3 1c-3 2-3 2-5.262 1.758l-2.426-.633-2.449-.617L106 180v-1h8v-2z" fill="#cabda4"/><path d="M125 174c1.858 3.135 2.201 5.375 2 9l-2 1-3-8 3-2z" fill="#a5565a"/><path d="M73 168c1.159 3.478.708 5.459 0 9h-3c.75-6.75.75-6.75 3-9z" fill="#d5cbb1"/><path d="M78 167l5 1 1 5-3-1-2 1-1-6z" fill="#f2deca"/><path d="M129 155l2 2-4 6-1-4 3-1v-3zm-4 8h1v8h-1v-8z" fill="#a22d3e"/><path d="M112.375 120.313L114 121v2l-8 1v2h-2v-3c5.415-3.077 5.415-3.077 8.375-2.687z" fill="#b5a9a1"/><path d="M175 62c1.033 2.788 1.045 3.868.063 6.75L174 71l-3-3c1.75-4.875 1.75-4.875 4-6z" fill="#4c4d51"/><path d="M183 51l1 3-5 4-1-2 1-2-3-1c2.076-.553 3.844-1 6-1l1-1z" fill="#838385"/><path d="M58 197h10v3h-9l-1-3z" fill="#430f16"/><path d="M159 187c1.875.25 1.875.25 4 1 1.25 2.063 1.25 2.063 2 4l-4 1c-2-3-2-3-2-6z" fill="#aa8590"/><path d="M57 183l1 3h7l-1 3-7-1v-5z" fill="#b8a09d"/><path d="M110 168c2.313 2.313 2.496 3.479 3.125 6.625l.508 2.477L114 179h-3c-1.283-3.85-1.066-6.947-1-11z" fill="#a1937d"/><path d="M76 159l3 1v6h-4l1-7z" fill="#816b58"/><path d="M126 134h2c-1.25 3.653-1.671 4.781-5 7h-5l3-1v-2l1.938-.875c2.215-.953 2.215-.953 3.063-3.125z" fill="#3e3d3a"/><path d="M41 134c1.532 4.084.631 7.795 0 12l-2-1v-9h2v-2z" fill="#8d1322"/><path d="M60 124h1l1 4.813.563 2.707C63 134 63 134 63 137l-4-2 1-11z" fill="#7b695b"/><path d="M134 128h3l.125 4.75.07 2.672C137 138 137 138 135 142v-9h-1v-5z" fill="#c4baad"/><path d="M123 120c2 2 2 2 2.125 4.625L125 127h-6l3-2-2-1v-2l3-2z" fill="#4f4640"/><path d="M27 105l2 1c.414 2.066.414 2.066.625 4.563l.227 2.504L30 115l-2 1v-4h-2l1-7z" fill="#1f1d1c"/><path d="M176 84c6.625-.25 6.625-.25 10 2l-1.875.375c-2.316.497-2.316.497-4.125 2.625l-1-2-3-1v-2z" fill="#777878"/><path d="M50 66c2.429 3.644 2.162 5.712 2 10-2-1.187-2-1.187-4-3-.375-2.562-.375-2.562 0-5l2-2z" fill="#45494b"/><path d="M55 15l6 2-2 6h-2l-2-8z" fill="#333238"/><path d="M80 6l1 2-3 1-2 3-1-3-3-1c3.228-2.152 4.284-2.201 8-2z" fill="#403f42"/><path d="M115 193l1.563.875c3.061 1.413 6.187 2.25 9.438 3.125l-1 2c-2.75.375-2.75.375-6 0-2.375-3-2.375-3-4-6z" fill="#8a7872"/><path d="M66 192l1 2-1 2-7 1 1-3 6-2z" fill="#7c5652"/><path d="M101 164h1v6l-2 2-2 4 .375-4.312.211-2.426C99 167 99 167 101 164z" fill="#baac9a"/><path d="M27 154l5 2-.5 1.813c-.611 2.301-.611 2.301-.5 5.188h-2c-2-5.625-2-5.625-2-9z" fill="#522d1b"/><path d="M152 140l3 2v2h3v3c-1.812-.187-1.812-.187-4-1-1.75-2.562-1.75-2.562-3-5l1-1z" fill="#1a100a"/><path d="M37 118h2v12h-1v-7l-3 1 2-6z" fill="#a04f5d"/><path d="M63 119h4l-1 9-1-4h-2v-5z" fill="#92908f"/><path d="M24 111l3 1-1.375 1.688C23.963 116.053 22.979 118.29 22 121l-3-1 5-9z" fill="#aea69d"/><path d="M133 77c4.568.878 6.521 1.385 9.438 5.125L144 85c-4.003-1.761-7.603-4.261-11-7v-1z" fill="#242525"/><path d="M30 178l1 2c-2.39 3.243-4.205 5.509-8 7 1.35-4.419 3.261-6.343 7-9z" fill="#d4c5c9"/><path d="M36 125h2c-.75 6.625-.75 6.625-3 10l-.062-4.437-.035-2.496C35 126 35 126 36 125z" fill="#d58597"/><path d="M136 118h3l-1 14h-1l-1-14z" fill="#8e877f"/><path d="M156 34c7.571 1.857 7.571 1.857 10 5l-1 2c-3.988-1.329-6.064-4.064-9-7z" fill="#a6a6a9"/><path d="M84 194l4 1v5h-3l-1-6z" fill="#597286"/><path d="M155 185l5 1v6l-3-1c-2-4.211-2-4.211-2-6z" fill="#974a5b"/><path d="M153 186c3 1 3 1 4.188 3.063L158 191l-3 1c-2-1-2-1-2.687-3l-.312-2 1-1z" fill="#9a3244"/><path d="M120 176l3 1v6l-5-2 2-5z" fill="#ead5c9"/><path d="M86 164h2c-.398 2.886-.79 3.822-3.062 5.75L83 171l-1-4 4-1v-2z" fill="#d8c3ae"/><path d="M154 146c1.563 1.063 1.563 1.063 3 3-.312 3.688-.312 3.688-1 7l-2-3 1-1-2-1 1-5z" fill="#84645d"/><path d="M146 147h1c.393 4.449-.847 7.142-3 11h-2l1.438-4.375.809-2.461C145 149 145 149 146 147z" fill="#781f1b"/><path d="M163 112l4 5h-2l-1 3-1-3-2 1c.506-2.169 1-4 2-6z" fill="#393a3c"/><path d="M47 73h1c.313 2.75.313 2.75 0 6-2.5 2.375-2.5 2.375-5 4l1.438-4.437.809-2.496C46 74 46 74 47 73z" fill="#484b4c"/><path d="M44 66h2l2 5-2 1-2 3v-9z" fill="#5f6368"/><path d="M57 2l2 1-1 4c-2.491.687-4.379 1-7 1l6-6z" fill="#9c9c9e"/><path d="M155 179l3.5 2.875 1.969 1.617L162 185v2c-2.375-.625-2.375-.625-5-2-1.312-3.125-1.312-3.125-2-6z" fill="#bba6ab"/><path d="M118 168h4l2 8-3-1-3-7z" fill="#87333a"/><path d="M69 166l3 3-1 2-4 1-1-3 3-3z" fill="#b39b8e"/><path d="M27 73l3 1-2 7-2 1 1-9z" fill="#25262a"/><path d="M46 56l1 3 3 1v2h-5v-3l-2-1h3v-2z" fill="#303338"/><path d="M96 12h10l-2 3-7-1-1-2z" fill="#454449"/><path d="M104 172c.687 2.491 1 4.379 1 7l-3 1c.875-6.875.875-6.875 2-8z" fill="#c9c0b0"/><path d="M74 173c1.206 2.332 2.165 4.496 3 7h-3v-2l-3 1-1-2h3l1-4z" fill="#cab69f"/><path d="M31 172l3 1 1 7-3-1-1-7z" fill="#9c8585"/><path d="M139 155l4 1-2 4-4-1 2-4z" fill="#a03543"/><path d="M94 151h2l1 9h-3v-9z" fill="#d1bfae"/><path d="M139 144h1v7h-3c-.125-2.375-.125-2.375 0-5l2-2z" fill="#242729"/><path d="M86 141l1 3c-2.312.688-2.312.688-5 1-1.812-1.437-1.812-1.437-3-3 3-1 3-1 7-1z" fill="#9b8770"/><path d="M22 127c2 3 2 3 1.758 5.262l-.633 2.426-.617 2.449L22 139l-2-2c.242-2.383.242-2.383.875-5.125l.617-2.758L22 127z" fill="#744831"/><path d="M31 124h3v12h-1v-9h-2v-3z" fill="#743634"/><path d="M66 114l6 5-2 1-5-2 1-4z" fill="#8e8b82"/><path d="M149 55c2.938.813 2.938.813 6 2l1 3c-2.375-.25-2.375-.25-5-1-1.312-2.062-1.312-2.062-2-4z" fill="#0e1011"/><path d="M70 28l2 1-1 3c-2.562 1.188-2.562 1.188-5 2l4-6z" fill="#414142"/><path d="M137 21c2.375-.187 2.375-.187 5 0l2 3-2 2-5-3v-2z" fill="#2c2b30"/><path d="M95 8h2l1 2c2.126.467 2.126.467 4.563.625l2.504.227L107 11v1l-5.375.125-3.023.07C96 12 96 12 94 10l1-2z" fill="#e6e6e8"/><path d="M98 8l12 2v1H98V8z" fill="#5f5f60"/><path d="M85 189h2c2.402 3.025 3.055 4.413 2.688 8.313L89 200h-1l-3-11z" fill="#44575c"/><path d="M79 195l5 3v2l-5-1v-4z" fill="#2b425b"/><path d="M112 193v4l-5-1v-2c2-1 2-1 5-1z" fill="#677f8b"/><path d="M146 168c3 2 3 2 4 4l-3 4c-1.354-2.709-1.065-5.009-1-8z" fill="#70594f"/><path d="M138 151h3c-1.187 4.108-1.894 5.894-5 9l2-9z" fill="#593236"/><path d="M125 121l4 1-1 4h-3v-5z" fill="#c2bcb3"/><path d="M114 122l1 3-5 1-2-3 6-1z" fill="#c1b3a7"/><path d="M103 112l4 2a56.54 56.54 0 0 1-4 7v-9z" fill="#8d8880"/><path d="M174 80l3 1-.625 1.875L176 85l2 2-2 2c-2-2-2-2-2.125-5.625L174 80z" fill="#414342"/><path d="M179 76l5 1-1 3c-2.062.688-2.062.688-4 1v-5z" fill="#4b4b4f"/><path d="M176 67h3l4 6-1 2c-2.615-2.366-4.264-4.942-6-8z" fill="#c1c1c3"/><path d="M40 41l3 1 1 5-5 1 1-7z" fill="#2c2c2e"/><path d="M69 16c2 3.75 2 3.75 2 6l-3 1-1-5h2v-2z" fill="#3d3c41"/><path d="M48 13c1.938.313 1.938.313 4 1l1 3-3 3c-2-5.875-2-5.875-2-7z" fill="#363539"/><path d="M72 9h3l-2 5h-3c.875-3.875.875-3.875 2-5z" fill="#727274"/></svg>